<svg xmlns="http://www.w3.org/2000/svg" version="1.1" xmlns:xlink="http://www.w3.org/1999/xlink" xmlns:svgjs="http://svgjs.com/svgjs" width="1440" height="560" preserveAspectRatio="none" viewBox="0 0 1440 560"><g mask="url(&quot;#SvgjsMask1018&quot;)" fill="none"><rect width="1440" height="560" x="0" y="0" fill="rgba(204, 0, 0, 1)"></rect><path d="M0,652.466C119.738,661.274,207.518,544.047,302.164,470.176C388.371,402.891,495.678,345.507,527.382,240.847C558.351,138.614,500.975,33.689,464.835,-66.833C435.057,-149.659,377.297,-213.449,336.09,-291.223C279.796,-397.471,280.089,-543.369,178.376,-607.494C74.825,-672.777,-64.841,-655.158,-181.285,-617.402C-296.097,-580.175,-395.671,-501.079,-461.607,-399.985C-523.166,-305.601,-541.573,-189.188,-533.902,-76.764C-527.144,22.271,-466.529,104.045,-421.19,192.351C-378.124,276.231,-338.55,358.178,-274.884,427.728C-193.318,516.832,-120.474,643.604,0,652.466" fill="#ba0000"></path><path d="M1440 1195.755C1558.929 1211.31 1668.778 1137.743 1771.529 1075.87 1876.902 1012.419 2016.562 954.869 2040.423 834.204 2064.965 710.098 1930.066 614.513 1886.229 495.842 1854.146 408.991 1858.3809999999999 315.738 1818.105 232.37 1766.555 125.66500000000002 1727.452-3.5639999999999645 1620.404-54.399 1511.504-106.11400000000003 1381.647-66.481 1266.946-29.366999999999962 1154.542 7.004000000000019 1055.085 70.39699999999999 972.78 155.152 886.826 243.66500000000002 782.304 342.635 785.942 465.961 789.579 589.27 919.646 664.361 990.773 765.155 1046.886 844.673 1089.623 928.527 1159.882 995.873 1244.402 1076.8890000000001 1323.911 1180.5720000000001 1440 1195.755" fill="#de0000"></path></g><defs><mask id="SvgjsMask1018"><rect width="1440" height="560" fill="#ffffff"></rect></mask></defs></svg>